<svg width="81" height="120" viewBox="0 0 81 120" fill="none" xmlns="http://www.w3.org/2000/svg">
<path d="M44.0686 20.8741C38.4091 20.8741 33.8045 16.192 33.8045 10.4372C33.8045 4.68208 38.4091 0 44.0686 0C49.7268 0 54.3301 4.68208 54.3301 10.4369C54.3301 16.192 49.7268 20.8741 44.0686 20.8741Z" fill="black"/>
<path d="M0.655726 46.9141L8.05648 39.3892C8.47872 38.9599 9.04206 38.7232 9.64227 38.7232C10.2427 38.7232 10.8058 38.9599 11.2281 39.3892L13.3951 41.5925C13.4843 41.4868 13.5728 41.3814 13.6707 41.2819C14.5984 40.338 15.8306 39.797 17.1621 39.7298C17.2412 39.5905 17.3267 39.4538 17.4225 39.3213L20.948 34.4338C21.9648 33.0241 23.7726 31.1746 25.1538 30.1321L34.4966 23.0798C34.7946 22.8564 35.7933 22.2101 36.87 22.2101C36.87 22.2101 50.0153 22.2133 50.0409 22.214C51.567 22.2476 52.683 23.0902 53.4476 24.7912L57.4739 33.7466C57.5592 33.8565 57.7981 34.0559 57.9205 34.1195L66.1265 36.1046C67.2553 36.3777 68.2119 37.0813 68.8201 38.0858C69.4282 39.0903 69.6151 40.2758 69.3468 41.4233C68.8792 43.4225 67.1431 44.8186 65.1248 44.8186C64.7876 44.8186 64.448 44.778 64.1162 44.6978L55.8315 42.6937C53.264 42.0727 50.7046 39.9342 49.6074 37.4937L49.2648 36.7318L47.0319 45.6489L52.8064 50.7489C55.0446 52.7254 56.1941 56.1692 55.6016 59.1234L52.9249 72.4585C52.4914 74.6178 50.606 76.185 48.442 76.1848C48.135 76.1848 47.8254 76.1527 47.5217 76.09C45.0477 75.5763 43.4457 73.1118 43.9507 70.5961L46.5648 57.5726L40.5929 52.2981C40.4344 52.1581 40.2923 52.0068 40.1574 51.8506H35.7638L32.8035 63.0824C32.3751 64.7074 31.4586 67.0471 30.6717 68.5248L24.1718 80.7322C23.3698 82.2375 21.8253 83.1728 20.1406 83.1728C20.0582 83.1728 19.9752 83.1704 19.8927 83.166C19.2149 83.1282 18.5656 82.9415 17.9643 82.6103C15.7438 81.3879 14.9151 78.5563 16.1171 76.298L22.6178 64.09C23.0713 63.2381 23.7096 61.6084 23.9572 60.6687L30.1673 37.3549C29.4659 37.9267 28.424 39.0052 27.9536 39.6577L24.4284 44.5452C24.1234 44.9678 23.7496 45.3268 23.3281 45.6104C23.354 47.1109 22.8134 48.5037 21.7935 49.5408C21.6959 49.64 21.5925 49.7311 21.4885 49.8214L23.6551 52.0242C24.5295 52.9134 24.5295 54.3606 23.6551 55.2498L16.2549 62.7746C15.8324 63.204 15.2693 63.4407 14.6691 63.4407C14.0691 63.4407 13.5058 63.204 13.0833 62.7746L0.656751 50.1394C-0.218729 49.2502 -0.218731 47.8033 0.655726 46.9141ZM19.9086 47.6244C20.2564 47.2708 20.4889 46.8274 20.5969 46.3371C19.7878 46.2762 19.0191 45.9885 18.3569 45.4948C17.3751 44.7629 16.7864 43.687 16.629 42.5484C16.2226 42.6739 15.8554 42.8936 15.5558 43.1983C15.4575 43.2983 15.3712 43.4071 15.2913 43.5201L19.5924 47.8936C9.64227 47.8936 19.8105 47.7241 19.9086 47.6244Z" fill="black"/>
<path d="M63.4136 67.842H78.3638C79.8175 67.842 81 69.0444 81 70.5223V117.32C81 118.798 79.8175 120 78.3638 120H63.4136C61.9599 120 60.7774 118.798 60.7774 117.32V70.5223C60.7774 69.0444 61.9599 67.842 63.4136 67.842Z" fill="black"/>
<path d="M39.6594 77.9857H54.6097C56.0633 77.9857 57.2458 79.1881 57.2458 80.666V117.32C57.2458 118.798 56.0633 120 54.6097 120H39.6594C38.2057 120 37.0232 118.798 37.0232 117.32V80.666C37.0232 79.1881 38.206 77.9857 39.6594 77.9857Z" fill="black"/>
<path d="M15.9068 84.754H30.8563C32.3099 84.754 33.4924 85.9564 33.4924 87.4343V117.32C33.4924 118.798 32.3099 120 30.8563 120H15.9068C14.4531 120 13.2703 118.798 13.2703 117.32V87.4343C13.2703 85.9564 14.4531 84.754 15.9068 84.754Z" fill="black"/>
</svg>
