<svg width="76" height="123" viewBox="0 0 76 123" fill="none" xmlns="http://www.w3.org/2000/svg">
<path d="M15.1695 21.9177C10.1542 21.9177 6.07376 17.0016 6.07376 10.959C6.07376 4.91617 10.1542 0 15.1695 0C20.1837 0 24.2629 4.91617 24.2629 10.9587C24.2629 17.0016 20.1837 21.9177 15.1695 21.9177Z" fill="black"/>
<path d="M56.0886 35.5673L48.7355 29.9942C48.316 29.6762 47.8475 29.5884 47.4167 29.7473C46.9857 29.9063 46.6458 30.2923 46.4592 30.8338L45.5016 33.613C45.409 33.5307 45.3168 33.4486 45.2196 33.375C44.2977 32.6758 43.2665 32.4604 42.2927 32.7456C42.1981 32.6271 42.0996 32.5129 41.9949 32.4056L38.1387 28.4466C37.0264 27.3047 35.2272 25.932 33.953 25.254L25.3343 20.6681C25.0598 20.5233 24.1677 20.1408 23.3949 20.4259C23.3949 20.4259 13.9612 23.9089 13.943 23.9164C12.8568 24.354 12.2845 25.4929 12.1972 27.398L11.7369 37.428C11.7056 37.5606 11.5882 37.8235 11.5176 37.9195L6.1665 42.0789C5.43049 42.6511 4.93475 43.6085 4.77079 44.775C4.60683 45.9416 4.79429 47.1777 5.2982 48.2553C6.17614 50.1326 7.80095 51.0705 9.24951 50.5362C9.49155 50.447 9.72422 50.3164 9.94065 50.1483L15.343 45.9491C17.0173 44.6478 18.274 41.8297 18.3995 39.0963L18.4387 38.243L22.4604 46.5778L19.6995 53.2114C18.6293 55.7824 18.7386 59.5338 19.9653 62.3341L25.5041 74.9738C26.4011 77.0204 28.1795 78.0901 29.7325 77.517C29.9529 77.4357 30.1664 77.3217 30.3673 77.1785C32.0036 76.0093 32.4848 73.1183 31.4399 70.7338L26.0304 58.3895L28.8857 51.529C28.9614 51.3468 29.0224 51.1578 29.0768 50.9657L32.2302 49.8026L37.402 60.2618C38.1503 61.775 39.4428 63.8744 40.4085 65.1452L48.3854 75.644C49.3693 76.9384 50.7316 77.4657 51.9407 77.0197C51.9999 76.9979 52.0588 76.9736 52.1168 76.9474C52.593 76.7301 53.0085 76.3714 53.3501 75.8807C54.6122 74.0692 54.4387 71.0154 52.9634 69.0732L44.9858 58.574C44.4292 57.8413 43.5289 56.379 43.0963 55.5039L32.3143 33.8112C32.9728 34.1978 34.0132 35.0016 34.5278 35.5302L38.3839 39.4893C38.7174 39.8316 39.0831 40.092 39.4626 40.2643C39.8511 41.7731 40.6169 43.0242 41.6303 43.7923C41.7272 43.8657 41.8262 43.9296 41.9253 43.9925L40.9679 46.771C40.5815 47.8925 40.9741 49.3411 41.843 49.9997L49.1957 55.5729C49.6154 55.8909 50.0838 55.9787 50.5146 55.8198C50.9452 55.661 51.2853 55.275 51.472 54.7333L56.9629 38.7961C57.35 37.6742 56.9575 36.2259 56.0886 35.5673ZM42.4632 41.375C42.1177 41.1131 41.8305 40.7308 41.6199 40.2687C42.1842 39.9935 42.6578 39.502 42.9991 38.8325C43.5052 37.84 43.6358 36.6072 43.4399 35.4258C43.7657 35.4439 44.0888 35.5666 44.3865 35.7923C44.4842 35.8663 44.5756 35.9524 44.6636 36.0444L42.7632 41.5608C49.9046 38.9268 42.5606 41.4489 42.4632 41.375Z" fill="black"/>
<path d="M60.1109 68H73.3595C74.6477 68 75.6956 69.2625 75.6956 70.8143V119.951C75.6956 121.503 74.6477 122.766 73.3595 122.766H60.1109C58.8227 122.766 57.7748 121.503 57.7748 119.951V70.8143C57.7748 69.2625 58.8227 68 60.1109 68Z" fill="black"/>
<path d="M39.0606 78.6509H52.3092C53.5974 78.6509 54.6453 79.9135 54.6453 81.4653V119.951C54.6453 121.503 53.5974 122.766 52.3092 122.766H39.0606C37.7724 122.766 36.7245 121.503 36.7245 119.951V81.4653C36.7245 79.9135 37.7727 78.6509 39.0606 78.6509Z" fill="black"/>
<path d="M18.0115 85.7576H31.2594C32.5476 85.7576 33.5955 87.0201 33.5955 88.5719V119.952C33.5955 121.503 32.5476 122.766 31.2594 122.766H18.0115C16.7233 122.766 15.6752 121.503 15.6752 119.952V88.5719C15.6752 87.0201 16.7233 85.7576 18.0115 85.7576Z" fill="black"/>
</svg>
