<svg width="50" height="50" viewBox="0 0 50 50" fill="none" xmlns="http://www.w3.org/2000/svg">
<path d="M25 45.8333C13.4937 45.8333 4.16666 36.5062 4.16666 25C4.16666 13.4937 13.4937 4.16666 25 4.16666C36.5062 4.16666 45.8333 13.4937 45.8333 25C45.8333 36.5062 36.5062 45.8333 25 45.8333ZM16.5 19.2375V19.45C16.5 19.7263 16.6097 19.9912 16.8051 20.1866C17.0004 20.3819 17.2654 20.4917 17.5417 20.4917H19.6187C19.7553 20.4917 19.8904 20.4648 20.0166 20.4125C20.1427 20.3603 20.2573 20.2837 20.3538 20.1872C20.4504 20.0906 20.5269 19.976 20.5792 19.8499C20.6314 19.7238 20.6583 19.5886 20.6583 19.4521C20.6583 16.7646 22.7375 15.3292 25.5333 15.3292C28.2583 15.3292 30.05 16.7646 30.05 18.8083C30.05 20.7417 29.0458 21.6396 26.5375 22.7875L25.8208 23.1083C23.7062 24.0417 22.9167 25.4375 22.9167 27.8771V28.125C22.9167 28.4013 23.0264 28.6662 23.2218 28.8616C23.4171 29.0569 23.6821 29.1667 23.9583 29.1667H26.0354C26.1719 29.1667 26.3071 29.1398 26.4332 29.0875C26.5594 29.0353 26.674 28.9587 26.7705 28.8622C26.867 28.7656 26.9436 28.651 26.9959 28.5249C27.0481 28.3988 27.075 28.2636 27.075 28.1271C27.075 27.0521 27.3625 26.6208 28.2208 26.2271L28.9396 25.9042C31.95 24.5417 34.2083 22.75 34.2083 18.8417V18.6271C34.2083 14.5062 30.625 11.4583 25.5333 11.4583C20.3708 11.4583 16.5 14.4333 16.5 19.2375ZM21.875 35.3979C21.875 37.2042 23.2479 38.5417 24.9812 38.5417C26.7521 38.5417 28.125 37.2042 28.125 35.3979C28.125 33.5917 26.7521 32.2917 24.9812 32.2917C23.2479 32.2917 21.875 33.5917 21.875 35.3979Z" fill="white"/>
</svg>
