<svg width="40" height="40" viewBox="0 0 40 40" fill="none" xmlns="http://www.w3.org/2000/svg">
<path fill-rule="evenodd" clip-rule="evenodd" d="M17.3333 3.00001C19.2553 0.437305 23.3333 1.79666 23.3333 5.00003V35.2023C23.3333 38.4232 19.2188 39.7712 17.313 37.1748L10.8226 28.3333H6.66666C3.90524 28.3333 1.66666 26.0948 1.66666 23.3333V16.6667C1.66666 13.9053 3.90524 11.6667 6.66666 11.6667H10.8333L17.3333 3.00001ZM20 5.00001L13.5 13.6667C12.8705 14.506 11.8825 15 10.8333 15H6.66666C5.74619 15 4.99999 15.7462 4.99999 16.6667V23.3333C4.99999 24.2538 5.74619 25 6.66666 25H10.8226C11.8838 25 12.8817 25.5053 13.5097 26.3608L20 35.2023V5.00001Z" fill="white"/>
<path d="M27.0228 6.95742C26.849 5.94085 27.6288 5 28.6602 5C29.4392 5 30.108 5.54667 30.244 6.31373C30.707 8.92245 31.6667 14.9411 31.6667 20C31.6667 25.0588 30.707 31.0775 30.244 33.6863C30.108 34.4533 29.4392 35 28.6602 35C27.6288 35 26.849 34.0592 27.0228 33.0427C27.5123 30.1788 28.3333 24.679 28.3333 20C28.3333 15.3211 27.5123 9.82117 27.0228 6.95742Z" fill="white"/>
<path d="M35.6833 8.33334C34.5577 8.33334 33.7337 9.48996 33.9943 10.585C34.4597 12.5402 35 15.7298 35 20C35 24.2702 34.4597 27.4598 33.9943 29.415C33.7337 30.51 34.5577 31.6667 35.6833 31.6667C36.286 31.6667 36.829 31.324 37.0168 30.7515C37.5057 29.2615 38.3333 25.8722 38.3333 20C38.3333 14.1279 37.5057 10.7384 37.0168 9.24856C36.829 8.67594 36.286 8.33334 35.6833 8.33334Z" fill="white"/>
</svg>
